<mxfile host="Electron" agent="Mozilla/5.0 (X11; Linux x86_64) AppleWebKit/537.36 (KHTML, like Gecko) draw.io/24.7.17 Chrome/128.0.6613.36 Electron/32.0.1 Safari/537.36" version="24.7.17">
  <diagram name="Page-1" id="hWo4reNMIuaWZyVQANVm">
    <mxGraphModel dx="1114" dy="659" grid="1" gridSize="10" guides="1" tooltips="1" connect="1" arrows="1" fold="1" page="1" pageScale="1" pageWidth="850" pageHeight="1100" math="0" shadow="0">
      <root>
        <mxCell id="0" />
        <mxCell id="1" parent="0" />
        <mxCell id="YZvnA2rj4-nxcpEYi65U-8" value="" style="edgeStyle=orthogonalEdgeStyle;rounded=0;orthogonalLoop=1;jettySize=auto;html=1;" edge="1" parent="1" source="YxIDigSbCn7ID0XpGGjo-1" target="YZvnA2rj4-nxcpEYi65U-4">
          <mxGeometry relative="1" as="geometry" />
        </mxCell>
        <mxCell id="YxIDigSbCn7ID0XpGGjo-1" value="start" style="ellipse;whiteSpace=wrap;html=1;" parent="1" vertex="1">
          <mxGeometry x="240" y="10" width="120" height="80" as="geometry" />
        </mxCell>
        <mxCell id="YZvnA2rj4-nxcpEYi65U-12" value="" style="edgeStyle=orthogonalEdgeStyle;rounded=0;orthogonalLoop=1;jettySize=auto;html=1;" edge="1" parent="1" source="YZvnA2rj4-nxcpEYi65U-1" target="YZvnA2rj4-nxcpEYi65U-2">
          <mxGeometry relative="1" as="geometry" />
        </mxCell>
        <mxCell id="YZvnA2rj4-nxcpEYi65U-1" value="input projectedNumberOfHours" style="shape=parallelogram;perimeter=parallelogramPerimeter;whiteSpace=wrap;html=1;fixedSize=1;" vertex="1" parent="1">
          <mxGeometry x="200" y="220" width="210" height="60" as="geometry" />
        </mxCell>
        <mxCell id="YZvnA2rj4-nxcpEYi65U-2" value="input wholeSaleCost" style="shape=parallelogram;perimeter=parallelogramPerimeter;whiteSpace=wrap;html=1;fixedSize=1;" vertex="1" parent="1">
          <mxGeometry x="190" y="310" width="220" height="60" as="geometry" />
        </mxCell>
        <mxCell id="YZvnA2rj4-nxcpEYi65U-3" value="totalCost = (projectedNumberOfHours * 30) * wholeSaleCost + (wholeSaleCost * 1.20)" style="rounded=0;whiteSpace=wrap;html=1;" vertex="1" parent="1">
          <mxGeometry x="165" y="400" width="270" height="60" as="geometry" />
        </mxCell>
        <mxCell id="YZvnA2rj4-nxcpEYi65U-4" value="Declare&lt;div&gt;projectedNumberOfHours&lt;/div&gt;&lt;div&gt;wholeSaleCost&lt;/div&gt;&lt;div&gt;totalCost&lt;/div&gt;" style="rounded=0;whiteSpace=wrap;html=1;" vertex="1" parent="1">
          <mxGeometry x="170" y="110" width="270" height="90" as="geometry" />
        </mxCell>
        <mxCell id="YZvnA2rj4-nxcpEYi65U-5" value="Display totalCost" style="shape=parallelogram;perimeter=parallelogramPerimeter;whiteSpace=wrap;html=1;fixedSize=1;" vertex="1" parent="1">
          <mxGeometry x="185" y="480" width="230" height="60" as="geometry" />
        </mxCell>
        <mxCell id="YZvnA2rj4-nxcpEYi65U-6" value="Display &quot;End Of Program&quot;" style="shape=parallelogram;perimeter=parallelogramPerimeter;whiteSpace=wrap;html=1;fixedSize=1;" vertex="1" parent="1">
          <mxGeometry x="185" y="560" width="215" height="60" as="geometry" />
        </mxCell>
        <mxCell id="YZvnA2rj4-nxcpEYi65U-7" value="stop" style="ellipse;whiteSpace=wrap;html=1;" vertex="1" parent="1">
          <mxGeometry x="233" y="660" width="120" height="80" as="geometry" />
        </mxCell>
        <mxCell id="YZvnA2rj4-nxcpEYi65U-11" value="" style="endArrow=classic;html=1;rounded=0;exitX=0.463;exitY=0.978;exitDx=0;exitDy=0;exitPerimeter=0;entryX=0.462;entryY=0.033;entryDx=0;entryDy=0;entryPerimeter=0;" edge="1" parent="1" source="YZvnA2rj4-nxcpEYi65U-4" target="YZvnA2rj4-nxcpEYi65U-1">
          <mxGeometry width="50" height="50" relative="1" as="geometry">
            <mxPoint x="300" y="210" as="sourcePoint" />
            <mxPoint x="450" y="200" as="targetPoint" />
          </mxGeometry>
        </mxCell>
        <mxCell id="YZvnA2rj4-nxcpEYi65U-15" value="" style="endArrow=classic;html=1;rounded=0;exitX=0.5;exitY=1;exitDx=0;exitDy=0;entryX=0.5;entryY=0;entryDx=0;entryDy=0;" edge="1" parent="1" source="YZvnA2rj4-nxcpEYi65U-2" target="YZvnA2rj4-nxcpEYi65U-3">
          <mxGeometry width="50" height="50" relative="1" as="geometry">
            <mxPoint x="400" y="370" as="sourcePoint" />
            <mxPoint x="450" y="320" as="targetPoint" />
          </mxGeometry>
        </mxCell>
        <mxCell id="YZvnA2rj4-nxcpEYi65U-16" value="" style="endArrow=classic;html=1;rounded=0;exitX=0.5;exitY=1;exitDx=0;exitDy=0;entryX=0.5;entryY=0;entryDx=0;entryDy=0;" edge="1" parent="1" source="YZvnA2rj4-nxcpEYi65U-3" target="YZvnA2rj4-nxcpEYi65U-5">
          <mxGeometry width="50" height="50" relative="1" as="geometry">
            <mxPoint x="400" y="610" as="sourcePoint" />
            <mxPoint x="450" y="560" as="targetPoint" />
          </mxGeometry>
        </mxCell>
        <mxCell id="YZvnA2rj4-nxcpEYi65U-17" value="" style="endArrow=classic;html=1;rounded=0;exitX=0.47;exitY=1.067;exitDx=0;exitDy=0;exitPerimeter=0;entryX=0.5;entryY=0;entryDx=0;entryDy=0;" edge="1" parent="1" source="YZvnA2rj4-nxcpEYi65U-5" target="YZvnA2rj4-nxcpEYi65U-6">
          <mxGeometry width="50" height="50" relative="1" as="geometry">
            <mxPoint x="400" y="610" as="sourcePoint" />
            <mxPoint x="450" y="560" as="targetPoint" />
          </mxGeometry>
        </mxCell>
        <mxCell id="YZvnA2rj4-nxcpEYi65U-18" value="" style="endArrow=classic;html=1;rounded=0;exitX=0.451;exitY=1.017;exitDx=0;exitDy=0;exitPerimeter=0;entryX=0.433;entryY=0;entryDx=0;entryDy=0;entryPerimeter=0;" edge="1" parent="1" source="YZvnA2rj4-nxcpEYi65U-6" target="YZvnA2rj4-nxcpEYi65U-7">
          <mxGeometry width="50" height="50" relative="1" as="geometry">
            <mxPoint x="400" y="610" as="sourcePoint" />
            <mxPoint x="450" y="560" as="targetPoint" />
          </mxGeometry>
        </mxCell>
      </root>
    </mxGraphModel>
  </diagram>
</mxfile>
